<?xml version="1.0" encoding="UTF-8"?>
<svg id="Layer_1" data-name="Layer 1" xmlns="http://www.w3.org/2000/svg" viewBox="0 0 725.2 687.16">
  <defs>
    <style>
      <!-- right wing -->
      .cls-1 {
        fill: #c9cbd7;
      }
      <!-- mouth -->
      .cls-2, .cls-3, .cls-5 {
        stroke: #240c01;
      }

      .cls-2, .cls-3, .cls-4 {
        stroke-miterlimit: 10;
      }
      <!-- black stripes -->
      .cls-2, .cls-5 {
        fill: black;
      }
      .cls-3 {
        fill: none;
        stroke-width: 10px;
      }
      <!-- cheeks -->
      .cls-6 {
        fill: #ff819f;
      }
      <!-- left wing -->
      .cls-7 {
        fill: #939495;
      }
      <!-- yellow stripes -->
      .cls-4 {
        fill: #f3bb13;
        stroke: #f3bb13;
        stroke-width: 2px;
      }
    </style>
  </defs>
  <path class="cls-7 bee-right-wing" d="m89.06,93.45c-32,86.82,41.8,184.75,108.41,205.78.02,0,.05.02.08.02,25.28-2.01,44.76-6.01,58.12-9.39,13.16-3.33,23.92-6.95,42.03-8.61,12.79-1.17,25.84-1.04,25.84-1.5,0-.31-6.04-.57-11.18-.75,12.85-1.5,25.71-2.99,38.56-4.49,2.21-17.53,4.61-43.81,3.93-75.74-1.3-60.87-2.16-101.5-27.78-138-4.82-6.86-41.85-57.88-104-60.67-61.21-2.74-115.34,42.7-134,93.33Z"/>
  <path class="cls-4 bee-yellow-stripes" d="m669.44,495.01c-.4.85-.83,1.73-1.27,2.63-8.68,17.66-17.15,29.91-17.62,30.59-13.39,19.21-25.45,36.58-45.67,56.7-4.07,4.05-8.73,8.66-14.09,13.61,2.62-10.4,5.31-20.84,8.07-31.31.4-1.51.8-3.03,1.2-4.55,26.15-100.57-8.05-183.86-8.05-183.86-1.82-4.44-3.89-9.08-6.24-13.87-1.61-3.29-3.24-6.43-4.89-9.42,5.47,4.08,9.28,7.13,11.08,8.58,19.35,15.6,32.22,29.02,42.12,39.41,1.75,1.84,14.77,15.58,29.69,35.38.09.22.2.45.31.69,2.1,6.14,4.06,13.53,5.27,22.01,1.85,13.04,1.3,24.48.09,33.41Z"/>
  <path class="cls-4 bee-yellow-stripes" d="m600.06,562.68c-.4,1.52-.8,3.04-1.2,4.55-2.76,10.47-5.45,20.91-8.07,31.31-15.99,14.77-38.17,32.57-69.22,47.41,0,0-8.15,3.78-17.03,7.44-8.13,3.35-18.16,7.19-29.87,11.03-50.03,16.42-130.62,32.91-223.82,11.66-39.93-9.11-101.71-23.19-148.97-74.97-10.73-11.75-36.32-40.47-45.1-83.83-13.92-68.72,23.87-122.97,33.87-137.3,52.37-75.01,141.32-92.6,181.24-100.49,0,0,4.77-.95,13.27-2.06,30.25-3.94,107.73-9.91,185.38,17.57,6.66,2.36,13.32,4.97,19.96,7.84,33.71,14.6,67.85,36.97,67.85,36.97,9.1,5.96,16.75,11.42,22.53,15.72,1.65,2.99,3.28,6.13,4.89,9.42,2.35,4.79,4.42,9.43,6.24,13.87,0,0,34.2,83.29,8.05,183.86Z"/>
  <path class="cls-4 bee-yellow-stripes" d="m669.44,495.01c1.21-8.93,1.76-20.37-.09-33.41-1.21-8.48-3.17-15.87-5.27-22.01-.11-.24-.22-.47-.31-.69.17.23.34.46.52.7,10.71,14.27,13.08,19.18,13.8,25.08.53,4.31.48,11.19-8.65,30.33Z"/>
  <path class="cls-3 bee-mouth" d="m107.99,520.33c-.42.57,16.5,19.02,42.66,23.17,28.53,4.53,52.37-10.43,52.11-11.09-.25-.64-22.86,12.33-51.45,7.93-26.37-4.05-42.91-20.57-43.32-20.02Z"/>
  <circle class="cls-5 bee-face" cx="107.98" cy="468.27" r="15.95"/>
  <circle class="cls-6 bee-cheeks" cx="69.64" cy="498.45" r="24.78"/>
  <path class="cls-2 bee-black-stripes" d="m724.67,462.92c.57,3.02-9.04,5.81-26.78,16.9-5,3.12-8.31,5.2-12.4,8.15-9.22,6.65-15.94,13.11-20.21,17.59.63-2.66,1.49-6.61,2.28-11.44,1.44-8.85,3.19-19.59,1.79-32.51-.57-5.31-1.89-12.99-5.27-22.01-.11-.24-.22-.47-.31-.69-1.33-2.91-2.05-4.45-2.05-4.45,5.63,3.74,10.43,6.6,14.06,8.66,4.28,2.43,7.68,4.17,8.78,4.72,1.06.55,2.9,1.48,5.22,2.56,10.33,4.76,20.8,7.87,24.67,8.97,8.26,2.36,9.98,2.3,10.22,3.56Z"/>
  <circle class="cls-5 bee-face" cx="212.73" cy="478.28" r="15.95"/>
  <path class="cls-1 bee-right-wing" d="m370.44,71.47c-57.01,52.94-81.79,144.62-51.66,199.13.6,1.09,1.14,2,1.54,2.68,21.7-.94,39.92-.12,53.66,1.02,14.46,1.2,24.99,2.84,27.69,3.27,14.85,2.36,25.67,5.06,38.19,8.22,10.33,2.61,23.5,6.2,38.72,11.06,12.95-3.81,95.77-29.57,125.2-106.71,5.45-14.29,19.32-50.65,4.67-92-.73-2.05-18.42-49.63-66.67-70.67C478.71-.03,407.52,37.03,370.44,71.47Z"/>
  <path class="cls-5 bee-face" d="m137.17,372.7c1.72-.35,3.37-1.72,4-3.42,1.22-3.27-1.9-7.23-7.42-13.58-10.55-12.15-13.25-14.58-13.25-14.58-13.63-12.31-20.45-18.47-27.3-23.68-15.71-11.95-32.4-22.09-38.21-25.38-.49-.28-1.69-.95-3.23-1.97-6.01-3.96-9.92-8.32-12.93-11.79-9.63-11.13-8.49-14.47-12.47-15.85-9.06-3.14-28.41,9.47-26.19,23.11,1.49,9.15,12.37,16.89,18.78,15.27,2.33-.59,3.85-2.37,8.68-3.41.79-.17,3.36-.69,7.09-.55,6.9.25,12.29,2.52,14.58,3.54,12.72,5.66,24.81,14.8,32.95,21.2,8.48,6.66,12.73,9.98,15.59,12.71,4.15,3.95,13.89,14.3,28.9,31.82,2.2,2.57,6.34,7.42,10.42,6.58Z"/>
  <path class="cls-5 bee-face" d="m169.7,374.49c1.74.19,3.73-.61,4.85-2.03,2.16-2.75.4-7.46-2.92-15.2-6.34-14.79-8.17-17.93-8.17-17.93-9.22-15.89-13.83-23.83-18.77-30.89-11.31-16.17-24.11-30.93-28.63-35.84-.38-.42-1.32-1.42-2.48-2.86-4.51-5.6-6.91-10.95-8.71-15.18-5.77-13.54-3.67-16.37-7.04-18.9-7.67-5.75-29.94.35-32,14.01-1.38,9.17,6.63,19.86,13.22,20.27,2.4.15,4.39-1.08,9.31-.6.8.08,3.41.37,6.92,1.64,6.5,2.34,10.93,6.15,12.81,7.82,10.39,9.28,19.11,21.66,24.91,30.25,6.04,8.94,9.08,13.39,10.97,16.86,2.74,5.03,8.86,17.86,17.81,39.13,1.31,3.12,3.77,9,7.91,9.45Z"/>
  <circle class="cls-6 bee-cheeks" cx="243.84" cy="527.67" r="24.78"/>
  <path class="cls-2 bee-black-stripes" d="m289.07,368.02c12.84,29.61,29.63,68.31,30.22,121.56.12,10.5-.04,53.07-19.89,103.78-14.99,38.3-35.2,65.91-49.77,82.96,7.52,1.72,17.2,3.72,28.56,5.49,19.83,3.1,35.23,4.03,41.43,4.34,14.36.73,25.44.48,31.31.33,1.06-.03,10.04-.25,19.78-.93,2.06-.14,4.46-.31,7.71-.61,0,0,2.53-.24,9.15-.95h0c9.24-17.17,20.62-41.02,30.4-70.62,7.95-24.09,21.4-65.94,21.78-121.33.47-70.36-20.42-123.14-32-151.56-11.41-28.01-23.8-50.18-33.34-65.62-14.35-1.2-27.08-1.52-37.77-1.44-19.73.15-34.73,1.67-42.33,2.46-5.32.55-8.89,1.02-9.96,1.17-2.43.32-13.5,1.83-28.83,5.19-3.63.8-8.58,1.93-14.44,3.44,13.64,18.08,32.12,45.71,48.01,82.35Z"/>
  <path class="cls-2 bee-black-stripes" d="m600.06,562.68c-.4,1.52-.8,3.04-1.2,4.55-2.76,10.47-5.45,20.91-8.07,31.31-.07.28-.14.56-.21.84-13.81,12.7-32.94,27.85-57.82,41.47-21.74,11.9-41.97,19.4-58.47,24.24.12-.22.25-.44.38-.67,16.71-29.88,45.27-90.52,47.28-171.96,2.37-96.36-33.77-167.44-51.41-197.46-.19-.33-.38-.65-.57-.97,8.03,3.01,17.78,6.95,28.7,12,11.59,5.37,20.05,9.93,25.41,12.83,21.48,11.63,36.41,21.72,40.48,24.5,6.61,4.52,12.03,8.5,15.91,11.42.14.25.28.5.41.75,1.65,2.99,3.28,6.13,4.89,9.42,2.35,4.79,4.42,9.43,6.24,13.87,0,0,34.2,83.29,8.05,183.86Z"/>
</svg>