<?xml version="1.0" encoding="UTF-8"?>
<svg id="Layer_1" data-name="Layer 1" xmlns="http://www.w3.org/2000/svg" viewBox="0 0 629.46 438.92">
  <defs>
    <style>
      .cls-1 {
      }
    </style>
  </defs>
  <path class="cls-1" d="m628.96,257.8c0,77.43-62.77,140.2-140.2,140.2-20.12,0-39.25-4.24-56.55-11.87-30.94,32.23-74.46,52.29-122.66,52.29-61.07,0-114.62-32.2-144.59-80.55-11.45,3.36-23.58,5.16-36.12,5.16C57.96,363.03.5,305.57.5,234.69S56.26,108.05,125.69,106.38C131.33,46.98,181.36.5,242.25.5c33.22,0,63.21,13.83,84.51,36.06C350.06,14.22,381.68.5,416.51.5c71.53,0,129.54,57.9,129.72,129.38,48.77,21.94,82.73,70.97,82.73,127.92Z"/>
</svg>