<?xml version="1.0" encoding="UTF-8"?>
<svg id="Layer_1" data-name="Layer 1" xmlns="http://www.w3.org/2000/svg" viewBox="0 0 275.03 952">
  <defs>
    <style>
      .cls-1 {
      }
    </style>
  </defs>
  <path class="cls-1 side-grass" d="m78,0C60.08,14.2,31.01,41.54,13,85,6.02,101.85,2.15,117.6,0,131v821h246c-12.74-11-34.85-33.18-48-68-8.95-23.7-11.17-46.47-10.3-66.07,1.15-25.81,7.67-46.15,11.3-55.93,0,0,16.16-43.57,76-106,1.39-.91-49.5,29.23-89,61-15.25,12.27-37.14,31.49-61,59,17.57-24.92,38.23-59.32,55-103,15.39-40.08,23.06-76.38,27-105-15.12,39.18-39.35,87.75-79,136-13.69,16.66-27.56,31.26-41,44,8.51-41.2,24.46-96.34,56-156,25.04-47.38,52.98-84.5,77-112-50.03,31.83-81.39,62.98-101,86-13.36,15.69-48,58.99-48,59,0,0,19.28-43.7,22-50,10.26-23.77,21.35-62.93,24-130-5.61,16.93-14.52,38.32-29,61-11.4,17.86-23.42,32.08-34,43,4.45-55.74,20.76-94.74,36-121,0,0,28.04-48.31,92-110,0,0-.05.03-.13.08-14.41,8.54-49.16,29.16-79.87,51.92,0,0-12.94,9.59-63,53,0,0,32.79-57.05,47-85,15.76-30.98,34.88-77.7,46-143-9.69,27.04-27.07,64.13-59,100-12.51,14.05-25.18,25.59-37,35,4.13-35.17,13.05-81.5,33-133,20.47-52.83,45.88-93.9,67-123-22.65,16.34-52.93,42.32-80,81-16.72,23.89-28.13,46.78-36,66-3.12-21.02-4.76-47.67-1-78C27.53,74.27,59.07,25.01,78,0Z"/>
</svg>