<?xml version="1.0" encoding="UTF-8"?>
<svg id="Layer_1" data-name="Layer 1" xmlns="http://www.w3.org/2000/svg" viewBox="0 0 265 966">
  <defs>
    <style>
      .cls-1 {
      }
    </style>
  </defs>
  <path id="right-grass" class="cls-1 side-grass" d="m41,966h223c.33-282.33.67-564.67,1-847-6.07-16.21-14.93-35.56-28-56-18.08-28.27-38-48.88-54-63,13.65,24.06,28.48,55.21,40,93,15.6,51.15,19.66,96.51,20,130-12.91-15.04-27.96-35.59-41-62-8.8-17.82-14.82-34.53-19-49,1.35,27.54,4.96,60.09,13,96,7.01,31.34,15.96,58.81,25,82-15.36-14.53-32.66-29.71-52-45-19.78-15.63-38.95-29.22-57-41,17.51,18.33,39.27,45.36,57,82,30.25,62.5,32.96,120.27,32,152-7.32-23.12-21.15-57.13-48-92-21.55-27.98-44.41-47.33-62-60,20.15,26.01,46.54,66.1,66,120,20.22,56.01,25.21,105.48,26,139-12.81-13.97-29.18-34.81-43-63-13.26-27.06-19.7-51.77-23-70,.23,23.46,2.11,54.8,9,91,0,0,13,68.31,61,180h0c-30.61-44.09-50-67-50-67-13.46-15.91-33.2-36.59-61-58,16.55,22.23,34.74,50.51,51,85,22.61,47.96,34,92.02,40,126-14.32-29.45-39.67-72.26-83-113-30.16-28.36-60.17-47.4-84-60,26.94,22.53,69.11,63.9,100,128,20.82,43.21,29.85,82.92,34,112-9.78-18.36-23.89-40.84-44-64-21.87-25.19-44.05-43.36-62-56,8.33,8.37,65.16,67.33,56,152-5.4,49.88-31.03,83.96-43,98Z"/>
</svg>