<?xml version="1.0" encoding="UTF-8"?>
<svg id="Layer_1" data-name="Layer 1" xmlns="http://www.w3.org/2000/svg" viewBox="0 0 1920 173.5">
  <defs>
    <style>
      .cls-1 {
        fill: #94ffa0;
      }
    </style>
  </defs>
  <path class="cls-1" d="m0,173.5C.17,124,.33,74.5.5,25c7.72,5.44,17.23,13.5,26,25,18.38,24.13,22.74,49.37,24,62,3.83-10.04,7.61-22.48,10-37,3.62-21.99,2.77-41,1-55,9.76,6.49,26.68,19.62,40,42,11.35,19.07,15.39,36.96,17,48,3.13-14.12,10.77-39.12,31-63,11.06-13.06,22.71-22.03,32-28-.14,11.48,1.2,32.94,13,56,7.58,14.82,16.93,25.3,24,32-1.17-11.57.11-20.48,1.5-26.5,2.76-11.93,9.23-26.62,9-26,0,0,2.02,17.12,10,32,5.77,10.76,15,21,15,21-5.42,10.62,11.49-20.96,16-32,4.87-11.92,8.73-29.99,3.5-56.5,7.08,6.24,19.6,18.92,28,39,8.76,20.94,8.69,39.51,8,49,7.22-7.83,18.15-21.78,25-42,9.79-28.9,5.57-53.94,3-65,10.32,6.29,29.83,20.08,45,45,14.12,23.19,17.84,45.13,19,57,5.35-10.03,13.05-22.32,24-35,10.54-12.2,21.13-21.35,30-28-.9,4.15-5.43,26.96,9,47,7.4,10.27,16.69,15.53,22,18,5.8-5.37,16.23-16.55,22-34,3.56-10.78,4.15-20.34,4-27,5.86,8.5,13.41,18.14,23,28,8.73,8.97,17.31,16.22,25,22,5.42-10.24,12.28-21.46,21-33,18.55-24.54,38.77-41.59,55-53-1.94,5.73-9.11,29.08,2,55,9.35,21.8,26.12,32.58,32,36,5.61-2.32,27.68-12.21,39-37,7.12-15.61,6.71-29.93,6-37,5.58,4.61,13.82,12.69,20,25,10.66,21.25,8.3,41.39,7,49,7.59-5.91,19.1-16.49,28-33,5.47-10.16,8.38-19.65,10-27,.86,9.64,2.78,21.66,7,35,4.91,15.52,11.38,27.92,17,37-1.43-10.22-2.8-31.21,8-53,3.67-7.41,7.98-13.36,12-18,.61,6.62,2.19,14.99,6,24,9.82,23.18,28.04,35.35,36,40,4.32-9.14,8.66-19.66,12.5-31.5,3-9.23,5.27-17.96,7-26,4.39,14.19,10.91,22.79,16,28,7.32,7.48,33.53,25.07,25,19h0c-7.25,15.88,10.48-24.38,16-33,5.02-7.84,13.18-17.71,27-27-1.21,6.74-4.42,29.36,9.5,47.5,2.82,3.68,5.93,6.63,9,9,2.5-.31,22.97-3.24,34-22,8.67-14.75,5.78-29.53,5-33,4.71,3.14,18.29,13.1,25,32,5.76,16.22,3.33,30.26,2,36,3.07-7.11,8.75-17.77,19-28,7.15-7.13,14.36-11.89,20-15-.48,3.42-.96,10.26,2,18,4.11,10.75,12.17,16.25,15,18,3.98-6.14,8.07-13.14,12-21,3.15-6.3,5.79-12.34,8-18,1.48,4.23,5,12.5,13,20,8.52,7.98,17.63,10.9,22,12,3.61-1.61,16.5-7.86,24-23,7.21-14.55,4.85-28.02,4-32,4.35,2.12,15.2,8.16,22,21,10.89,20.55,2.23,41.2,1,44,8.93-8.25,19.48-19.74,29-35,5.07-8.13,8.98-15.94,12-23,.54,7.41,1.88,16.69,5,27,3.69,12.21,8.68,21.94,13,29,4.91-3.64,18.66-14.8,25-35,7.12-22.69.16-41.68-2-47,6.31,2.03,29.62,10.34,45,35,14.45,23.16,12.77,46.11,12,53,1.96-9.4,4.81-19.87,9-31,8.68-23.09,20.11-41.06,30-54-1.25,14.08-1.31,33.64,4,56,2.97,12.51,6.99,23.23,11,32,3.17-3.2,14.6-15.49,15-34,.19-8.68-2.11-15.65-4-20,6.56,1.95,17.64,6.25,28,16,5.58,5.25,9.41,10.63,12,15,3.64-2.99,10.07-9.13,14-19,6.63-16.65,1.32-31.68-.17-35.5,6.74,2.5,24.1,9.96,37.17,28.5,10.86,15.4,13.31,30.74,14,38,4.71-8.25,10.02-19.32,14-33,4.45-15.29,5.77-28.83,6-39,6.77,5.81,15.43,14.6,23,27,4.65,7.62,7.82,14.85,10,21,4.04-1.16,10.27-3.52,16.5-8.5,9.38-7.5,13.41-16.66,15-21,1.76,6.83,4.3,14.64,8,23,5.32,12.01,11.5,21.66,17,29-.16-6.43.14-26.87,14.5-46.5,13.26-18.13,30.69-24.89,37-27-3.12,7.77-7.53,21.78-6.5,39.5,1.4,23.97,11.95,40.9,17,48,5.91-3.98,19.42-14.22,28-33,8.75-19.18,7.43-36.45,6.5-43.5,6.15,3.54,16.46,10.58,25,23,12.03,17.48,13.36,35.16,13.5,42.5,4.97-5.65,10.77-13.27,16-23,6.24-11.59,9.6-22.32,11.5-30.5.83,8.64,2.8,19.95,7.5,32.5,3.66,9.77,8.03,17.78,12,24,2.92-3.03,6.97-7.97,10-15,4.16-9.64,4.28-18.32,4-23,7,14.67,14,29.33,21,44-.37-5.57-2.05-38.27,21.5-59.5,6.78-6.11,13.98-9.77,20-12-1.18,1.88-11.25,18.43-4,36,3.55,8.61,9.7,13.68,13,16,3.13-3.35,6.8-7.98,10-14,5.43-10.23,7.01-19.78,7.5-25.83v128.33H0Z"/>
</svg>