<?xml version="1.0" encoding="UTF-8"?>
<svg id="Layer_1" data-name="Layer 1" xmlns="http://www.w3.org/2000/svg" viewBox="0 0 643.46 450.54">
  <defs>
    <style>
      .cls-1 {
      }
    </style>
  </defs>
  <path class="cls-1" d="m643.46,259.43c0,77.44-62.77,140.21-140.2,140.21-21.76,0-42.36-4.96-60.73-13.81-31.13,39.41-79.35,64.71-133.48,64.71-44.56,0-85.12-17.14-115.43-45.2-19.13,11.31-41.44,17.81-65.28,17.81C57.46,423.15,0,365.69,0,294.81c0-62.42,44.54-114.42,103.57-125.96-1.26-6.86-1.91-13.92-1.91-21.14,0-64.66,52.42-117.09,117.09-117.09,27.13,0,52.11,9.23,71.96,24.73C314.17,21.88,353.04,0,397.01,0c68.76,0,125.03,53.5,129.44,121.14,66.39,11.05,117.01,68.76,117.01,138.29Z"/>
</svg>