<?xml version="1.0" encoding="UTF-8"?>
<svg id="Layer_1" data-name="Layer 1" xmlns="http://www.w3.org/2000/svg" viewBox="0 0 652.33 457.12">
  <defs>
    <style>
      .cls-1 {
      }
    </style>
  </defs>
  <path class="cls-1" d="m652.33,287.11c0,70.88-57.46,128.34-128.34,128.34-23.6,0-45.71-6.37-64.71-17.49-31.17,36.22-77.36,59.16-128.9,59.16-56.45,0-106.48-27.52-137.41-69.88-16.29,6.61-34.1,10.26-52.76,10.26C62.77,397.5,0,334.73,0,257.3S62.77,117.09,140.21,117.09C140.21,52.43,192.63,0,257.3,0c37.09,0,70.15,17.25,91.59,44.16,23.18-21.6,54.27-34.82,88.45-34.82,71.64,0,129.72,58.07,129.72,129.72,0,8.98-.91,17.74-2.65,26.2,51.08,16.93,87.92,65.08,87.92,121.85Z"/>
</svg>