<?xml version="1.0" encoding="UTF-8"?>
<svg id="Layer_1" data-name="Layer 1" xmlns="http://www.w3.org/2000/svg" viewBox="0 0 248.26 195.54">
  <defs>
    <style>
      .cls-1, .cls-2, .cls-3 {
        stroke-miterlimit: 10;
      }

      .cls-1, .cls-3 {
        stroke: #231f20;
      }

      .cls-1, .cls-4 {
        fill: #231f20;
      }

      .cls-5 {
        fill: #efabcd;
      }

      .cls-2 {
        fill: #ffd400;
        stroke: #ffd400;
        stroke-width: 1.5px;
      }

      .cls-6 {
        fill: #caebf7;
      }

      .cls-3 {
        fill: none;
        stroke-width: 6px;
      }
    </style>
  </defs>
  <path class="cls-4" d="m66.19,5.49c1.85-3.5,6.28-6.43,11.01-5.2,4,1.03,6.95,4.7,7.19,9.07,3.12,1.05,11.58,4.41,18.44,14.19,5.34,7.61,7.13,15.42,7.79,19.26-1.78.97-3.55,1.94-5.33,2.91-.3-2.75-1.57-11.86-8.13-19.75-5.91-7.11-12.63-9.06-15.04-9.62-2.96,3.48-7.44,4.91-11.09,3.6-5.4-1.94-7.53-9.38-4.84-14.47Z"/>
  <path class="cls-6" d="m224.92,49.34c-25.36-14.69-59.05,6.89-68.63,29.14,0,0,0,.02-.01.03-.55,8.86-.22,15.78.21,20.56.42,4.7,1.04,8.59.71,14.94-.23,4.49-.87,9.01-.73,9.03.1.01.46-2.07.75-3.85-.13,4.52-.27,9.05-.4,13.57,5.32,1.49,13.33,3.41,23.23,4.49,18.88,2.06,31.48,3.44,43.95-3.95,2.34-1.39,19.83-12.14,23.57-33.59,3.68-21.13-7.86-41.79-22.65-50.36Z"/>
  <path class="cls-4" d="m177.62,5.49c-1.85-3.5-6.28-6.43-11.01-5.2-4,1.03-6.95,4.7-7.19,9.07-3.12,1.05-11.58,4.41-18.44,14.19-5.34,7.61-7.13,15.42-7.79,19.26,1.78.97,3.55,1.94,5.33,2.91.3-2.75,1.57-11.86,8.13-19.75,5.91-7.11,12.63-9.06,15.04-9.62,2.96,3.48,7.44,4.91,11.09,3.6,5.4-1.94,7.53-9.38,4.84-14.47Z"/>
  <path class="cls-6" d="m23.34,49.34c25.36-14.69,59.05,6.89,68.63,29.14,0,0,0,.02.01.03.55,8.86.22,15.78-.21,20.56-.42,4.7-1.04,8.59-.71,14.94.23,4.49.87,9.01.73,9.03-.1.01-.46-2.07-.75-3.85.13,4.52.27,9.05.4,13.57-5.32,1.49-13.33,3.41-23.23,4.49-18.88,2.06-31.48,3.44-43.95-3.95-2.34-1.39-19.83-12.14-23.57-33.59-3.68-21.13,7.86-41.79,22.65-50.36Z"/>
  <path class="cls-2" d="m120.17,182.87c-.21-.1-.43-.21-.66-.32-4.4-2.16-7.46-4.28-7.63-4.39-4.79-3.34-9.12-6.34-14.14-11.39-1.01-1.01-2.16-2.18-3.39-3.51,2.59.65,5.2,1.32,7.81,2.01.38.1.76.2,1.13.3,25.07,6.52,45.84-2.01,45.84-2.01,1.11-.45,2.26-.97,3.46-1.56.82-.4,1.6-.81,2.35-1.22-1.02,1.36-1.78,2.31-2.14,2.76-3.89,4.82-7.23,8.03-9.83,10.5-.46.44-3.88,3.68-8.82,7.4-.05.02-.11.05-.17.08-1.53.52-3.37,1.01-5.49,1.31-3.25.46-6.1.32-8.33.02Z"/>
  <path class="cls-2" d="m103.3,165.57c-.38-.1-.76-.2-1.13-.3-2.61-.69-5.21-1.36-7.81-2.01-3.68-3.99-8.12-9.52-11.82-17.26,0,0-.94-2.03-1.85-4.25-.84-2.03-1.79-4.53-2.75-7.45-4.09-12.47-8.2-32.56-2.91-55.8,2.27-9.95,5.78-25.36,18.69-37.14,2.93-2.68,10.09-9.05,20.9-11.24,17.13-3.47,30.66,5.95,34.23,8.44,18.7,13.06,23.09,35.23,25.05,45.18,0,0,.24,1.19.51,3.31.98,7.54,2.47,26.86-4.38,46.22-.59,1.66-1.24,3.32-1.95,4.98-3.64,8.4-9.22,16.92-9.22,16.92-1.49,2.27-2.85,4.18-3.92,5.62-.75.41-1.53.82-2.35,1.22-1.19.59-2.35,1.1-3.46,1.56,0,0-20.76,8.53-45.84,2.01Z"/>
  <path class="cls-1" d="m127.3,195.03c-.8.03-1.19-1.53-3.35-5.07,0,0-.98-1.64-2.03-3.09-1.66-2.3-3.27-3.97-4.38-5.04.66.16,1.65.37,2.85.57,2.21.36,4.88.79,8.11.45,1.32-.14,3.24-.47,5.49-1.31.06-.03.12-.05.17-.08.73-.33,1.11-.51,1.11-.51-.97,1.48-1.7,2.71-2.16,3.5-1.71,2.96-2.77,4.79-3.95,7.38-1.05,2.31-1.27,3.18-1.86,3.21Z"/>
  <path class="cls-1" d="m152.21,95.23c-9.23,2.94-18.36,5.85-30.67,5.85-12.87,0-22.65-3.18-28.72-5.2-8.32-2.78-14.9-6.16-19.48-8.84-.47,3.29-.71,6.2-.83,8.61-.18,3.59-.12,6.35-.08,7.8,0,.26.06,2.5.23,4.93.04.51.08,1.11.15,1.92,0,0,.06.63.24,2.28,4.28,2.3,10.23,5.14,17.61,7.58,6,1.98,16.44,5.34,30.25,5.43,17.54.12,30.7-5.09,37.78-7.98,6.98-2.84,12.51-5.93,16.36-8.31.3-3.58.38-6.75.36-9.42-.02-2.29-.12-4.33-.14-4.71-.03-.63-.09-1.73-.21-3.1-.13-1.55-.35-3.6-.74-6.02-5.16,2.67-12.67,6.16-22.12,9.17Z"/>
  <path class="cls-1" d="m103.3,165.57c-.38-.1-.76-.2-1.13-.3-2.61-.69-5.21-1.36-7.81-2.01-.07-.02-.14-.03-.21-.05-3.17-3.44-6.94-8.21-10.34-14.41-2.97-5.42-4.84-10.46-6.04-14.58.05.03.11.06.17.09,7.45,4.17,22.57,11.29,42.87,11.79,24.02.59,41.74-8.42,49.23-12.82.08-.05.16-.09.24-.14-.75,2-1.73,4.43-2.99,7.16-1.34,2.89-2.48,5-3.2,6.33-2.9,5.36-5.41,9.08-6.11,10.09-1.13,1.65-2.12,3-2.85,3.97-.06.03-.12.07-.19.1-.75.41-1.53.82-2.35,1.22-1.19.59-2.35,1.1-3.46,1.56,0,0-20.76,8.53-45.84,2.01Z"/>
  <path class="cls-3" d="m105.86,80.31c-.14.01-.23.02-.25.05-.15.37,7.8,6.48,17.26,6.81,10.44.36,19.41-6.45,19.3-6.71,0-.02-.12,0-.33.03-1.19.2-2.01.89-2.1.96-.88.71-9.11,4.93-16.77,4.48-6.75-.4-15.12-4.54-15.82-5.13-.08-.07-.62-.55-1.29-.5Z"/>
  <circle class="cls-4" cx="100.22" cy="63.01" r="6.9"/>
  <circle class="cls-4" cx="147.42" cy="63.01" r="6.9"/>
  <circle class="cls-5" cx="90.29" cy="77.64" r="8.98"/>
  <circle class="cls-5" cx="157.17" cy="77.64" r="8.98"/>
</svg>