<?xml version="1.0" encoding="UTF-8"?>
<svg id="Layer_1" data-name="Layer 1" xmlns="http://www.w3.org/2000/svg" viewBox="0 0 555.43 361.82">
  <defs>
    <style>
      .cls-1 {
      }
    </style>
  </defs>
  <path class="cls-1 cloud" d="m555.43,234.88c0,46.88-38,84.89-84.88,84.89-11.96,0-23.34-2.47-33.66-6.94-24.14,29.88-61.09,48.99-102.49,48.99-32.92,0-63.03-12.08-86.11-32.06-13.38,13.57-31.98,21.98-52.55,21.98-28.37,0-53.01-16-65.36-39.47-11.29,4.83-23.72,7.5-36.77,7.5C41.91,319.77,0,277.86,0,226.16c0-44.79,31.45-82.22,73.47-91.42,7.33-47.24,48.18-83.39,97.46-83.39,10.31,0,20.24,1.58,29.58,4.51C215.13,22.95,248.11,0,286.44,0c40.33,0,74.72,25.4,88.06,61.07,12.88-8.82,28.47-13.98,45.27-13.98,44.31,0,80.23,35.92,80.23,80.23,0,9.26-1.57,18.15-4.46,26.42,34.68,10.67,59.89,42.96,59.89,81.14Z"/>
</svg>