<?xml version="1.0" encoding="UTF-8"?>
<svg id="Layer_1" data-name="Layer 1" xmlns="http://www.w3.org/2000/svg" viewBox="0 0 872 882.37">
  <path class="cls-2 flower-out-2" d="m820.79,660.02c-11.38-52.62-22.77-105.23-34.15-157.84,28.45-45.96,56.91-91.92,85.36-137.88-63.77,9.41-135.54,15.87-213.96,16.23-20.6.1-40.69-.23-60.23-.93,14.22-14,29.5-28.16,45.89-42.3,61.13-52.74,121.48-91.28,173.72-119.4-51.25-16.44-102.51-32.89-153.77-49.33-25.57-47.62-51.14-95.25-76.72-142.87-23.74,59.93-54.03,125.32-92.92,193.41-10.21,17.86-20.52,35.05-30.87,51.6-4.98-19.22-9.58-39.42-13.6-60.56-15.11-79.32-18.32-150.85-16.54-210.15-39.87,36.17-79.74,72.33-119.61,108.5-54.03-1.66-108.06-3.33-162.09-4.99,40.03,50.53,81.51,109.45,121.04,177.18,10.05,17.24,19.52,34.27,28.44,51.02-19.15-5.3-38.97-11.43-59.31-18.52-76.24-26.57-139.79-59.56-190.26-90.75,11.39,52.61,22.77,105.23,34.16,157.84-28.46,45.96-56.91,91.92-85.37,137.87,63.77-9.4,135.54-15.86,213.96-16.22,21.22-.1,41.88.25,61.97.99-14.49,14.29-30.08,28.76-46.83,43.21-61.13,52.75-121.48,91.29-173.72,119.4,51.26,16.44,102.51,32.89,153.77,49.34,25.57,47.62,51.15,95.24,76.72,142.86,23.74-59.92,54.03-125.31,92.93-193.41,9.68-16.94,19.46-33.3,29.28-49.07,4.63,18.14,8.91,37.14,12.68,56.97,15.11,79.32,18.31,150.85,16.54,210.15,39.87-36.17,79.74-72.34,119.61-108.5,54.03,1.66,108.06,3.33,162.09,4.99-40.03-50.53-81.52-109.45-121.04-177.18-10.15-17.4-19.69-34.57-28.68-51.47,19.76,5.42,40.22,11.73,61.25,19.06,76.25,26.57,139.8,59.56,190.26,90.75Zm-468.9-188.32c4.97-28.81,9.95-57.62,14.92-86.43,28.28-10.41,56.57-20.82,84.86-31.23,22.8,19,45.6,38,68.4,56.99-4.91,28.47-9.83,56.93-14.74,85.39-28.61,10.54-57.23,21.07-85.85,31.59-22.53-18.77-45.06-37.53-67.59-56.31Z"/>
  <circle class="cls-1 flower-center" cx="435.76" cy="441.63" r="111.63" transform="translate(-184.65 437.48) rotate(-45)"/>
</svg>