<?xml version="1.0" encoding="UTF-8"?>
<svg id="Layer_1" data-name="Layer 1" xmlns="http://www.w3.org/2000/svg" viewBox="0 0 990.74 987.65">
  <path class="cls-1 flower-out-1" d="m486.37,453.2c-15.54-56.4-23.86-104.47-28.6-139.24-7.83-57.39-15.79-118.96-4.09-193.45C459.6,82.83,477.19-.36,498.22,0c20.77.36,36.19,82.09,41.27,122.8,8.22,65.95,1.11,119-9.09,191.51-5.05,35.89-12.96,83.38-25.74,138.84-6.09.02-12.19.04-18.28.06Z"/>
  <path class="cls-1 flower-out-1" d="m505.43,453.29c8.74-57.84,20.7-105.14,30.51-138.83,16.19-55.61,33.96-115.09,74.95-178.38,20.74-32.02,70.64-100.87,89.7-91.99,18.83,8.78-.33,89.71-12.25,128.97-19.31,63.59-47.39,109.17-86.2,171.25-19.21,30.73-45.75,70.9-79.98,116.36-5.58-2.46-11.15-4.92-16.73-7.38Z"/>
  <path class="cls-1 flower-out-1" d="m522.7,460.99c31.51-49.29,61.67-87.63,84.34-114.42,37.41-44.22,77.84-91.33,141.02-132.48,31.97-20.82,105.56-63.42,119.36-47.55,13.63,15.68-36.79,81.82-63.65,112.84-43.51,50.23-87.69,80.45-148.4,121.39-30.05,20.26-70.64,46.16-120.4,73.77-4.09-4.52-8.18-9.03-12.28-13.55Z"/>
  <path class="cls-1 flower-out-1" d="m535.39,475.28c48.83-32.21,91.99-54.97,123.58-70.23,52.16-25.18,108.26-51.77,182.72-63.66,37.68-6.02,122.23-15,128.38,5.11,6.08,19.87-66.89,59.79-104.04,77.19-60.18,28.2-112.83,37.83-184.94,50.53-35.69,6.29-83.31,13.44-140,18.42-1.9-5.79-3.8-11.58-5.7-17.37Z"/>
  <path class="cls-1 flower-out-1" d="m541.2,493.34c57.71-9.56,106.39-12.8,141.46-13.89,57.89-1.79,119.96-3.27,192.81,16.16,36.87,9.83,117.77,36.01,115.2,56.89-2.53,20.62-85.42,27.41-126.44,28.2-66.44,1.28-118.47-11.33-189.51-29.06-35.16-8.77-81.57-21.6-135.39-40.11.62-6.06,1.24-12.13,1.85-18.19Z"/>
  <path class="cls-1 flower-out-1" d="m539.1,512.3c56.61,14.74,102.4,31.58,134.88,44.85,53.61,21.91,110.91,45.81,169.57,93.18,29.68,23.97,92.94,80.8,82.11,98.83-10.7,17.81-89.19-9.7-126.98-25.66-61.22-25.85-103.61-58.54-161.3-103.63-28.56-22.32-65.73-52.91-107.37-91.71,3.03-5.29,6.06-10.57,9.09-15.86Z"/>
  <path class="cls-1 flower-out-1" d="m529.48,530.65c45.72,36.49,80.71,70.5,104.98,95.83,40.07,41.82,82.69,86.96,117.01,154.1,17.36,33.97,52.04,111.61,34.81,123.68-17.02,11.92-77.53-45.14-105.57-75.09-45.41-48.52-70.85-95.62-105.21-160.28-17.01-32-38.53-75.07-60.78-127.45,4.92-3.6,9.84-7.2,14.76-10.79Z"/>
  <path class="cls-1 flower-out-1" d="m514.2,541.74c26.93,51.93,45.05,97.23,56.92,130.25,19.59,54.5,40.18,113.08,44.22,188.37,2.04,38.1,2.14,123.13-18.5,127.14-20.39,3.97-52.47-72.77-65.9-111.54-21.75-62.79-25.83-116.17-30.92-189.21-2.52-36.15-4.66-84.25-3.69-141.15,5.96-1.29,11.91-2.57,17.87-3.86Z"/>
  <path class="cls-1 flower-out-1" d="m495.47,545.62c3.48,58.4,1.61,107.15-.97,142.14-4.27,57.76-9.29,119.64-36.22,190.07-13.63,35.64-48.12,113.36-68.62,108.63-20.24-4.67-18.33-87.82-14.83-128.7,5.67-66.21,23.65-116.63,48.71-185.43,12.4-34.05,30.01-78.87,54.04-130.45,5.97,1.25,11.93,2.5,17.9,3.75Z"/>
  <path class="cls-1 flower-out-1" d="m476.81,541.57c-20.58,54.76-42.11,98.54-58.7,129.45-27.4,51.03-57.15,105.52-110.4,158.9-26.94,27.01-90.07,83.98-106.87,71.33-16.59-12.5,18.97-87.69,38.8-123.6,32.11-58.18,69.05-96.93,119.92-149.59,25.18-26.07,59.49-59.84,102.43-97.19,4.94,3.57,9.88,7.13,14.83,10.7Z"/>
  <path class="cls-1 flower-out-1" d="m461.45,530.25c-41.07,41.66-78.55,72.89-106.28,94.39-45.78,35.48-95.13,73.15-165.49,100.26-35.6,13.72-116.44,40.09-126.64,21.69-10.07-18.17,53-72.39,85.72-97.14,53-40.09,102.5-60.46,170.39-87.88,33.61-13.57,78.69-30.47,133.11-47.13,3.06,5.27,6.13,10.54,9.19,15.81Z"/>
  <path class="cls-1 flower-out-1" d="m451.99,511.74c-54.46,21.35-101.4,34.65-135.48,43-56.25,13.79-116.66,28.14-191.96,24.28-38.1-1.95-122.68-10.74-124.51-31.69-1.81-20.7,77.86-44.57,117.82-53.88,64.72-15.07,118.23-13.55,191.41-10.98,36.22,1.27,84.28,4.17,140.77,11.09.66,6.06,1.31,12.12,1.97,18.18Z"/>
  <path class="cls-1 flower-out-1" d="m450.08,492.73c-58.44-2.65-106.73-9.59-141.26-15.83-57-10.29-118.01-21.75-185.24-55.89-34.02-17.28-107.7-59.71-100.86-79.6,6.76-19.64,89.26-9.05,129.54-1.3,65.26,12.56,113.52,35.72,179.32,67.82,32.57,15.89,75.3,38.09,124.09,67.38-1.87,5.8-3.73,11.6-5.6,17.41Z"/>
  <path class="cls-1 flower-out-1" d="m456.06,474.59c-52.31-26.19-93.6-52.18-122.61-71.91-47.89-32.58-98.97-67.87-146.49-126.4-24.05-29.62-74.11-98.35-59.76-113.74,14.17-15.2,85.22,28.03,118.87,51.5,54.51,38.02,89.18,78.8,136.23,134.9,23.29,27.77,53.29,65.42,85.95,112.03-4.06,4.54-8.13,9.08-12.19,13.63Z"/>
  <path class="cls-1 flower-out-1" d="m468.82,460.68c-37.14-45.2-64.29-85.74-82.76-115.57-30.5-49.24-62.81-102.25-82.41-175.06-9.92-36.84-27.7-119.99-8.34-128.21,19.12-8.12,66.45,60.27,87.65,95.4,34.33,56.9,49.42,108.26,69.59,178.65,9.98,34.84,22.08,81.44,32.96,137.3-5.56,2.5-11.12,4.99-16.68,7.49Z"/>
  <circle class="cls-2 flower-center" cx="496.08" cy="499.23" r="117.05"/>
</svg>